<svg width="50" height="43" viewBox="0 0 50 43" fill="none" xmlns="http://www.w3.org/2000/svg">
<path d="M49.8097 24.917C49.8082 24.8871 49.8053 24.8571 49.8011 24.8272L47.2949 7.38898C47.2522 7.0922 47.0757 6.83146 46.816 6.68175C46.5564 6.53205 46.2423 6.50978 45.9638 6.6217L34.4304 11.2586C33.9299 11.4598 33.6874 12.0286 33.8885 12.529C34.0897 13.0296 34.6587 13.2721 35.159 13.0709L45.5383 8.89796L47.8509 24.9893C47.8521 25.0347 47.8566 25.0802 47.8643 25.1257C48.37 28.1024 47.8164 31.1828 46.3057 33.7994C44.566 36.8127 41.7537 38.9663 38.3866 39.8635C35.0186 40.7609 31.499 40.294 28.4758 38.5487C28.4549 38.5366 28.4334 38.5264 28.412 38.5161C29.0602 38.0235 29.6698 37.4902 30.2385 36.9197L41.6719 33.8561C42.193 33.7166 42.5021 33.1809 42.3625 32.6599C42.2229 32.139 41.687 31.8297 41.1664 31.9693L32.3689 34.3265C33.3356 32.8885 34.0919 31.3025 34.6087 29.6058L42.4575 27.5027C42.9786 27.3632 43.2878 26.8275 43.1481 26.3065C43.0086 25.7855 42.4726 25.4763 41.952 25.6159L36.1768 27.1634L38.3485 23.4018L42.9379 22.1721C43.459 22.0325 43.7681 21.4969 43.6285 20.9759C43.4889 20.4549 42.953 20.1456 42.4324 20.2853L39.7298 21.0095L41.8079 17.41C42.0776 16.9428 41.9176 16.3455 41.4505 16.0759C40.9833 15.8062 40.386 15.9662 40.1164 16.4333L38.0383 20.0327L37.3141 17.3301C37.1744 16.8091 36.6388 16.4998 36.118 16.6395C35.5969 16.779 35.2877 17.3146 35.4273 17.8356L36.657 22.425L35.3863 24.626C35.4238 21.4997 34.6239 18.4103 33.0207 15.6335C31.0019 12.1368 27.8158 9.4212 24.0455 7.98253C24.0394 7.9799 24.033 7.97726 24.0268 7.97462L19.6076 6.18107C19.1074 5.97824 18.5383 6.21906 18.3355 6.71877C18.1326 7.21867 18.3734 7.7882 18.8732 7.99103L23.2521 9.76818C23.2719 9.77726 23.2921 9.78566 23.3126 9.79347C26.6807 11.069 29.5277 13.4898 31.3291 16.61C33.426 20.242 33.9791 24.4755 32.8865 28.5309C31.8786 32.2718 29.5812 35.447 26.3722 37.5684L24.7331 34.7296L28.2865 21.4683C28.4262 20.9472 28.117 20.4117 27.5959 20.2721C27.0745 20.1325 26.5395 20.4417 26.3998 20.9627L23.3521 32.3375L19.7362 26.0747L22.2015 16.8747C22.3411 16.3536 22.0319 15.8182 21.5108 15.6785C20.9897 15.5389 20.4544 15.8481 20.3148 16.3691L18.3552 23.6824L15.5049 18.7456L16.9896 13.2051C17.1292 12.684 16.82 12.1485 16.2989 12.0089C15.7776 11.8693 15.2425 12.1785 15.1028 12.6995L14.1236 16.3533L11.4235 11.6764C11.1538 11.2093 10.5565 11.0491 10.0894 11.319C9.62219 11.5886 9.46213 12.1859 9.73195 12.653L12.4321 17.3299L8.77844 16.3509C8.25725 16.2112 7.72199 16.5205 7.58235 17.0415C7.4427 17.5626 7.75188 18.098 8.27297 18.2377L13.8134 19.7224L16.6637 24.6592L9.35061 22.6997C8.82942 22.5601 8.29416 22.8693 8.15451 23.3903C8.01487 23.9114 8.32405 24.4469 8.84514 24.5865L18.0449 27.0517L21.6607 33.3144L10.2863 30.2667C9.76496 30.127 9.22981 30.4363 9.09016 30.9573C8.95051 31.4784 9.25969 32.0139 9.78078 32.1535L23.042 35.7068L24.6809 38.5454C17.3006 42.2237 8.21789 39.5745 4.05217 32.3594C2.23128 29.2055 1.56409 25.4926 2.17356 21.9046C2.18186 21.8561 2.18626 21.8078 2.18704 21.7597L4.97581 2.351L11.4456 4.97687C11.9459 5.1798 12.515 4.93898 12.7178 4.43918C12.9206 3.93928 12.6799 3.36975 12.1801 3.16691L4.55393 0.0716052C4.27571 -0.0411876 3.96067 -0.0198988 3.70032 0.129613C3.43987 0.279124 3.26272 0.540257 3.21995 0.837717L0.235186 21.6066C0.230401 21.6395 0.227471 21.6726 0.226104 21.7053C-0.422137 25.7011 0.333916 29.8261 2.36018 33.3356C5.62317 38.9875 11.5686 42.1487 17.6803 42.1486C20.3796 42.1486 23.1108 41.5296 25.6581 40.2385L26.8584 42.3174C27.0394 42.6306 27.3676 42.8058 27.7052 42.8058C27.8708 42.8058 28.0388 42.7636 28.1926 42.6749C28.6598 42.4052 28.8198 41.8079 28.55 41.3408L28.105 40.5699C30.263 41.6902 32.6168 42.2634 34.9987 42.2634C36.2966 42.2634 37.6028 42.0937 38.8896 41.7509C42.7617 40.719 45.9964 38.2419 47.9974 34.776C49.7151 31.801 50.3569 28.3045 49.8097 24.917Z" fill="#2D9124"/>
</svg>
