<svg width="68" height="68" viewBox="0 0 68 68" fill="none" xmlns="http://www.w3.org/2000/svg">
<g filter="url(#filter0_d)">
<g clip-path="url(#clip0)">
<path d="M55.4877 56.9564H12.5109C9.56142 56.9564 6.82168 55.4293 5.27116 52.9198C3.72018 50.4109 3.57914 47.2778 4.89841 44.6393L26.3868 7.84941C27.8288 4.96634 30.7755 3.14473 33.9993 3.14473C37.2231 3.14473 40.1698 4.96634 41.6118 7.84941L63.1002 44.6393C64.4195 47.2778 64.2784 50.4109 62.7274 52.9198C61.1769 55.4293 58.4376 56.9564 55.4877 56.9564Z" fill="#F0C419"/>
<path d="M55.4927 56.9564H33.9993V3.14473C37.2308 3.12458 40.1894 4.95352 41.6159 7.85353L63.0988 44.642C64.4199 47.2787 64.2807 50.4118 62.7311 52.9208C61.181 55.4302 58.4422 56.9573 55.4927 56.9564Z" fill="#F29C1F"/>
<path d="M38.1389 47.6428C38.1389 49.9292 36.2853 51.7824 33.9993 51.7824C31.7134 51.7824 29.8602 49.9292 29.8602 47.6428C29.8602 45.3568 31.7134 43.5036 33.9993 43.5036C36.2853 43.5036 38.1389 45.3568 38.1389 47.6428Z" fill="#35495E"/>
<path d="M38.1389 47.6428C38.1389 48.7409 37.7029 49.7936 36.9267 50.5703C36.1501 51.3465 35.0974 51.7824 33.9993 51.7824V43.5036C35.0974 43.5032 36.1501 43.9391 36.9267 44.7157C37.7029 45.4919 38.1389 46.5451 38.1389 47.6428Z" fill="#2C3E50"/>
<path d="M33.9993 11.4235C36.2853 11.4235 38.1389 13.2767 38.1389 15.5631V35.2249C38.1389 37.5108 36.2853 39.364 33.9993 39.364C31.7134 39.364 29.8602 37.5108 29.8602 35.2249V15.5631C29.8602 13.2767 31.7134 11.4235 33.9993 11.4235Z" fill="#35495E"/>
<path d="M38.1388 15.5631V35.2249C38.1388 36.3229 37.7029 37.3757 36.9267 38.1519C36.1501 38.9285 35.0974 39.3645 33.9993 39.364V11.4235C35.0974 11.4221 36.1515 11.8576 36.9281 12.6342C37.7043 13.4109 38.1402 14.4645 38.1388 15.5631Z" fill="#2C3E50"/>
</g>
</g>
<defs>
<filter id="filter0_d" x="0" y="0" width="68" height="68" filterUnits="userSpaceOnUse" color-interpolation-filters="sRGB">
<feFlood flood-opacity="0" result="BackgroundImageFix"/>
<feColorMatrix in="SourceAlpha" type="matrix" values="0 0 0 0 0 0 0 0 0 0 0 0 0 0 0 0 0 0 127 0"/>
<feOffset dy="4"/>
<feGaussianBlur stdDeviation="2"/>
<feColorMatrix type="matrix" values="0 0 0 0 0 0 0 0 0 0 0 0 0 0 0 0 0 0 0.25 0"/>
<feBlend mode="normal" in2="BackgroundImageFix" result="effect1_dropShadow"/>
<feBlend mode="normal" in="SourceGraphic" in2="effect1_dropShadow" result="shape"/>
</filter>
<clipPath id="clip0">
<rect width="60" height="60" fill="white" transform="translate(4)"/>
</clipPath>
</defs>
</svg>
