<svg width="68" height="68" viewBox="0 0 68 68" fill="none" xmlns="http://www.w3.org/2000/svg">
<g filter="url(#filter0_d)">
<path d="M64 30C64 33.0528 63.5441 35.999 62.6958 38.774C60.5205 45.899 55.7639 51.8976 49.5154 55.6805C48.6791 56.1877 47.8153 56.6542 46.9268 57.0786C45.6707 57.6796 44.3674 58.1955 43.0221 58.6185C40.1748 59.5161 37.1439 60 34 60C30.8359 60 27.7868 59.5102 24.9239 58.602C23.5634 58.1708 22.2474 57.6457 20.9794 57.0328H20.978C20.1192 56.619 19.2838 56.1644 18.4727 55.6732C13.2354 52.5 9.04822 47.769 6.55112 42.123C4.91049 38.4164 4 34.3149 4 30C4 29.8311 4.00137 29.6613 4.00458 29.4937C4.00687 29.3532 4.00916 29.2136 4.01419 29.0753C4.01648 29.0121 4.0174 28.949 4.02106 28.8853C4.02563 28.7425 4.03159 28.5997 4.03845 28.4564C4.04669 28.309 4.05493 28.1612 4.06546 28.0138C4.07278 27.8893 4.08194 27.7652 4.09155 27.6421C4.09705 27.5592 4.10437 27.4745 4.11261 27.3912C4.12085 27.2859 4.13 27.1815 4.14053 27.0772C4.16068 26.8721 4.18265 26.667 4.20737 26.4633C4.22156 26.3342 4.23804 26.2042 4.25543 26.0756C4.26001 26.0358 4.26505 25.9969 4.27054 25.957C4.28839 25.8165 4.30807 25.6769 4.33051 25.5377C4.33142 25.5267 4.33279 25.5162 4.33508 25.5057C4.34561 25.426 4.35843 25.3477 4.3717 25.2681C4.39597 25.1134 4.42206 24.9573 4.44861 24.8039C4.46646 24.6996 4.48523 24.5952 4.50491 24.4908C4.52277 24.3961 4.54016 24.3013 4.5603 24.2061C4.57404 24.1287 4.5896 24.0527 4.60471 23.9767C4.65643 23.7245 4.70999 23.475 4.76859 23.2256C4.79102 23.1281 4.81345 23.031 4.83771 22.9349C4.86243 22.8268 4.88943 22.7179 4.91736 22.6103C4.94208 22.5105 4.96817 22.4121 4.99472 22.3137C5.00891 22.2574 5.02402 22.2011 5.03958 22.1439C5.08536 21.9749 5.13205 21.806 5.18103 21.6385C5.21307 21.5273 5.24557 21.4174 5.27991 21.3071C5.37329 20.9953 5.47171 20.6859 5.57608 20.3787C5.61591 20.2615 5.65573 20.1471 5.69693 20.0308C5.73676 19.915 5.77887 19.8001 5.82098 19.6852C5.85989 19.5772 5.90063 19.4696 5.94183 19.3616C6.03659 19.1107 6.13501 18.8612 6.23709 18.614C6.26868 18.5344 6.30255 18.4547 6.33688 18.3751C6.35199 18.3385 6.3671 18.3023 6.38129 18.2671C6.41653 18.1865 6.45041 18.1055 6.48566 18.0244C6.61429 17.7292 6.74796 17.4376 6.8862 17.1478C6.93106 17.0508 6.97775 16.9537 7.02582 16.8576C7.04092 16.8256 7.05511 16.7953 7.07159 16.7647C7.13614 16.6324 7.2016 16.5001 7.26935 16.3687C7.34579 16.2199 7.42316 16.0712 7.50281 15.9233C7.57193 15.7924 7.64197 15.661 7.71475 15.531C7.78754 15.3973 7.86261 15.265 7.93768 15.1337C7.94089 15.1277 7.94318 15.1231 7.94684 15.1172C13.1173 6.08551 22.8484 0 34 0C45.1516 0 54.8827 6.08551 60.0532 15.1172C60.0568 15.1231 60.0591 15.1277 60.0623 15.1337C60.1374 15.265 60.2125 15.3973 60.2852 15.531C60.358 15.661 60.4281 15.7924 60.4972 15.9233C60.5768 16.0712 60.6542 16.2199 60.7307 16.3687C60.7984 16.5001 60.8639 16.6324 60.9284 16.7647C60.9449 16.7953 60.9591 16.8256 60.9742 16.8576C61.0222 16.9537 61.0689 17.0508 61.1138 17.1478C61.252 17.4376 61.3857 17.7292 61.5143 18.0244C61.5496 18.1055 61.5835 18.1865 61.6187 18.2671C61.6329 18.3023 61.648 18.3385 61.6631 18.3751C61.6974 18.4547 61.7313 18.5344 61.7629 18.614C61.865 18.8612 61.9634 19.1107 62.0582 19.3616C62.0994 19.4696 62.1401 19.5772 62.179 19.6852C62.2211 19.8001 62.2632 19.915 62.3031 20.0308C62.3443 20.1471 62.3841 20.2615 62.4239 20.3787C62.5283 20.6859 62.6267 20.9953 62.7201 21.3071C62.7544 21.4174 62.7869 21.5273 62.819 21.6385C62.868 21.806 62.9146 21.9749 62.9604 22.1439C62.976 22.2011 62.9911 22.2574 63.0053 22.3137C63.0318 22.4121 63.0579 22.5105 63.0826 22.6103C63.1106 22.7179 63.1376 22.8268 63.1623 22.9349C63.1866 23.031 63.209 23.1281 63.2314 23.2256C63.29 23.475 63.3436 23.7245 63.3953 23.9767C63.4104 24.0527 63.426 24.1287 63.4397 24.2061C63.4598 24.3013 63.4772 24.3961 63.4951 24.4908C63.5148 24.5952 63.5335 24.6996 63.5514 24.8039C63.5779 24.9573 63.604 25.1134 63.6283 25.2681C63.6416 25.3477 63.6544 25.426 63.6649 25.5057C63.6672 25.5162 63.6686 25.5267 63.6695 25.5377C63.6919 25.6769 63.7116 25.8165 63.7295 25.957C63.735 25.9969 63.74 26.0358 63.7446 26.0756C63.762 26.2042 63.7784 26.3342 63.7926 26.4633C63.8174 26.667 63.8393 26.8721 63.8595 27.0772C63.87 27.1815 63.8792 27.2859 63.8874 27.3912C63.8956 27.4745 63.903 27.5592 63.9084 27.6421C63.9181 27.7652 63.9272 27.8893 63.9345 28.0138C63.9451 28.1612 63.9533 28.309 63.9615 28.4564C63.9684 28.5997 63.9744 28.7425 63.9789 28.8853C63.9826 28.949 63.9835 29.0121 63.9858 29.0753C63.9908 29.2136 63.9931 29.3532 63.9954 29.4937C63.9986 29.6613 64 29.8311 64 30Z" fill="#FF3445"/>
<path d="M64 30C64 33.0528 63.5441 35.999 62.6958 38.774C60.5205 45.899 55.7639 51.8976 49.5154 55.6805C48.6791 56.1877 47.8153 56.6542 46.9268 57.0786C45.6707 57.6796 44.3674 58.1955 43.0221 58.6185C40.1748 59.5161 37.1439 60 34 60C30.8359 60 27.7868 59.5102 24.9239 58.602C23.5634 58.1708 22.2474 57.6457 20.9794 57.0328H20.978C20.1192 56.619 19.2838 56.1644 18.4727 55.6732C13.2354 52.5 9.04822 47.769 6.55112 42.123C4.91049 38.4164 4 34.3149 4 30C4 29.8311 4.00137 29.6613 4.00458 29.4937C4.00687 29.3532 4.00916 29.2136 4.01419 29.0753C4.01648 29.0121 4.0174 28.949 4.02106 28.8853C4.02563 28.7425 4.03159 28.5997 4.03845 28.4564C4.04669 28.309 4.05493 28.1612 4.06546 28.0138C4.07278 27.8893 4.08194 27.7652 4.09155 27.6421C4.09705 27.5592 4.10437 27.4745 4.11261 27.3912C4.12085 27.2859 4.13 27.1815 4.14053 27.0772C4.16068 26.8721 4.18265 26.667 4.20737 26.4633C4.22156 26.3342 4.23804 26.2042 4.25543 26.0756C4.26001 26.0358 4.26505 25.9969 4.27054 25.957C4.28839 25.8165 4.30807 25.6769 4.33051 25.5377C4.33142 25.5267 4.33279 25.5162 4.33508 25.5057C4.34561 25.426 4.35843 25.3477 4.3717 25.2681C4.39597 25.1134 4.42206 24.9573 4.44861 24.8039C4.46646 24.6996 4.48523 24.5952 4.50491 24.4908C4.52277 24.3961 4.54016 24.3013 4.5603 24.2061C4.57404 24.1287 4.5896 24.0527 4.60471 23.9767C4.65643 23.7245 4.70999 23.475 4.76859 23.2256C4.79102 23.1281 4.81345 23.031 4.83771 22.9349C4.86243 22.8268 4.88943 22.7179 4.91736 22.6103C4.94208 22.5105 4.96817 22.4121 4.99472 22.3137C5.00891 22.2574 5.02402 22.2011 5.03958 22.1439C5.08536 21.9749 5.13205 21.806 5.18103 21.6385C5.21307 21.5273 5.24557 21.4174 5.27991 21.3071C5.37329 20.9953 5.47171 20.6859 5.57608 20.3787C5.61591 20.2615 5.65573 20.1471 5.69693 20.0308C5.73676 19.915 5.77887 19.8001 5.82098 19.6852C5.85989 19.5772 5.90063 19.4696 5.94183 19.3616C6.03659 19.1107 6.13501 18.8612 6.23709 18.614C6.26868 18.5344 6.30255 18.4547 6.33688 18.3751C6.35199 18.3385 6.3671 18.3023 6.38129 18.2671C6.41653 18.1865 6.45041 18.1055 6.48566 18.0244C6.61429 17.7292 6.74796 17.4376 6.8862 17.1478C6.93106 17.0508 6.97775 16.9537 7.02582 16.8576C7.04092 16.8256 7.05511 16.7953 7.07159 16.7647C7.13614 16.6324 7.2016 16.5001 7.26935 16.3687C7.34579 16.2199 7.42316 16.0712 7.50281 15.9233C7.57193 15.7924 7.64197 15.661 7.71475 15.531C7.78754 15.3973 7.86261 15.265 7.93768 15.1337C7.94089 15.1277 7.94318 15.1231 7.94684 15.1172C10.362 19.3373 13.7733 22.9138 17.8611 25.5267C18.1985 25.7437 18.5418 25.9525 18.8888 26.1539C20.1732 26.9064 21.5182 27.5638 22.9153 28.119C23.0324 28.1662 23.151 28.2129 23.2691 28.2573C25.8051 29.23 28.5064 29.8677 31.3198 30.1149C31.567 30.1382 31.8146 30.157 32.0641 30.1721C32.7041 30.2133 33.3495 30.2344 34 30.2344C34.7196 30.2344 35.4342 30.2087 36.141 30.1584H36.1423C36.3227 30.1465 36.5008 30.1323 36.6802 30.1149C39.4936 29.8677 42.1949 29.23 44.7309 28.2573C44.8948 28.1955 45.0577 28.131 45.2207 28.0641C46.5684 27.5217 47.8693 26.8817 49.1112 26.1539C49.4596 25.9525 49.8015 25.7437 50.1389 25.5267C54.2267 22.9138 57.638 19.3373 60.0532 15.1172C60.0568 15.1231 60.0591 15.1277 60.0623 15.1337C60.1374 15.265 60.2125 15.3973 60.2852 15.531C60.358 15.661 60.4281 15.7924 60.4972 15.9233C60.5768 16.0712 60.6542 16.2199 60.7307 16.3687C60.7984 16.5001 60.8639 16.6324 60.9284 16.7647C60.9449 16.7953 60.9591 16.8256 60.9742 16.8576C61.0222 16.9537 61.0689 17.0508 61.1138 17.1478C61.252 17.4376 61.3857 17.7292 61.5143 18.0244C61.5496 18.1055 61.5835 18.1865 61.6187 18.2671C61.6329 18.3023 61.648 18.3385 61.6631 18.3751C61.6974 18.4547 61.7313 18.5344 61.7629 18.614C61.865 18.8612 61.9634 19.1107 62.0582 19.3616C62.0994 19.4696 62.1401 19.5772 62.179 19.6852C62.2211 19.8001 62.2632 19.915 62.3031 20.0308C62.3443 20.1471 62.3841 20.2615 62.4239 20.3787C62.5283 20.6859 62.6267 20.9953 62.7201 21.3071C62.7544 21.4174 62.7869 21.5273 62.819 21.6385C62.868 21.806 62.9146 21.9749 62.9604 22.1439C62.976 22.2011 62.9911 22.2574 63.0053 22.3137C63.0318 22.4121 63.0579 22.5105 63.0826 22.6103C63.1106 22.7179 63.1376 22.8268 63.1623 22.9349C63.1866 23.031 63.209 23.1281 63.2314 23.2256C63.29 23.475 63.3436 23.7245 63.3953 23.9767C63.4104 24.0527 63.426 24.1287 63.4397 24.2061C63.4598 24.3013 63.4772 24.3961 63.4951 24.4908C63.5148 24.5952 63.5335 24.6996 63.5514 24.8039C63.5779 24.9573 63.604 25.1134 63.6283 25.2681C63.6416 25.3477 63.6544 25.426 63.6649 25.5057C63.6672 25.5162 63.6686 25.5267 63.6695 25.5377C63.6919 25.6769 63.7116 25.8165 63.7295 25.957C63.735 25.9969 63.74 26.0358 63.7446 26.0756C63.762 26.2042 63.7784 26.3342 63.7926 26.4633C63.8174 26.667 63.8393 26.8721 63.8595 27.0772C63.87 27.1815 63.8792 27.2859 63.8874 27.3912C63.8956 27.4745 63.903 27.5592 63.9084 27.6421C63.9181 27.7652 63.9272 27.8893 63.9345 28.0138C63.9451 28.1612 63.9533 28.309 63.9615 28.4564C63.9684 28.5997 63.9744 28.7425 63.9789 28.8853C63.9826 28.949 63.9835 29.0121 63.9858 29.0753C63.9908 29.2136 63.9931 29.3532 63.9954 29.4937C63.9986 29.6613 64 29.8311 64 30Z" fill="#DD1265"/>
<path d="M50.9455 30.6047C50.9455 36.4311 47.8881 38.6096 43.2615 39.4244C42.0191 39.6432 41.1191 40.7085 41.1191 41.9463V43.4976C41.1191 44.1385 40.6 44.6576 39.9592 44.6576H39.9578C39.3169 44.6576 38.7964 44.1385 38.7964 43.4976V43.179C38.7964 42.7231 38.4275 42.3541 37.9716 42.3541C37.744 42.3541 37.5381 42.4466 37.3893 42.5954C37.2391 42.7455 37.1467 42.9515 37.1467 43.179V43.4976C37.1467 44.1385 36.6276 44.6576 35.9862 44.6576C35.6663 44.6576 35.3756 44.5276 35.165 44.3179C34.9549 44.1083 34.8249 43.819 34.8249 43.4976V43.179C34.8249 42.7231 34.4559 42.3541 34 42.3541C33.7725 42.3541 33.5665 42.4466 33.4164 42.5954C33.2676 42.7455 33.1751 42.9515 33.1751 43.179V43.4976C33.1751 44.1385 32.6546 44.6576 32.0138 44.6576C31.6938 44.6576 31.4031 44.5276 31.1935 44.3179C30.9838 44.1083 30.8533 43.819 30.8533 43.4976V43.179C30.8533 42.7231 30.4844 42.3541 30.0284 42.3541C29.8 42.3541 29.5936 42.4466 29.4448 42.5954C29.296 42.7455 29.2036 42.9515 29.2036 43.179V43.4976C29.2036 44.1385 28.6831 44.6576 28.0422 44.6576C27.7213 44.6576 27.4315 44.5276 27.2205 44.3179C27.0109 44.1083 26.8809 43.819 26.8809 43.4976V41.9463C26.8809 40.7085 25.9809 39.6432 24.7385 39.4244C22.6667 39.0587 20.9102 38.421 19.6024 37.3041C17.9865 35.9285 17.0545 33.8228 17.0545 30.6047C17.0545 21.4279 24.6415 13.9874 34 13.9874C43.3585 13.9874 50.9455 21.4279 50.9455 30.6047Z" fill="white"/>
<path d="M50.9455 30.6047C50.9455 36.4311 47.8881 38.6096 43.2615 39.4244C42.0191 39.6432 41.1191 40.7085 41.1191 41.9463V43.4976C41.1191 44.1385 40.6 44.6576 39.9592 44.6576H39.9578C39.3169 44.6576 38.7964 44.1385 38.7964 43.4976V43.179C38.7964 42.7231 38.4275 42.3541 37.9716 42.3541C37.744 42.3541 37.5381 42.4466 37.3893 42.5954C37.2391 42.7455 37.1467 42.9515 37.1467 43.179V43.4976C37.1467 44.1385 36.6276 44.6576 35.9862 44.6576C35.6663 44.6576 35.3756 44.5276 35.165 44.3179C34.9549 44.1083 34.8249 43.819 34.8249 43.4976V43.179C34.8249 42.7231 34.4559 42.3541 34 42.3541C33.7725 42.3541 33.5665 42.4466 33.4164 42.5954C33.2676 42.7455 33.1751 42.9515 33.1751 43.179V43.4976C33.1751 44.1385 32.6546 44.6576 32.0138 44.6576C31.6938 44.6576 31.4031 44.5276 31.1935 44.3179C30.9838 44.1083 30.8533 43.819 30.8533 43.4976V43.179C30.8533 42.7231 30.4844 42.3541 30.0284 42.3541C29.8 42.3541 29.5936 42.4466 29.4448 42.5954C29.296 42.7455 29.2036 42.9515 29.2036 43.179V43.4976C29.2036 44.1385 28.6831 44.6576 28.0422 44.6576C27.7213 44.6576 27.4315 44.5276 27.2205 44.3179C27.0109 44.1083 26.8809 43.819 26.8809 43.4976V41.9463C26.8809 40.7085 25.9809 39.6432 24.7385 39.4244C22.6667 39.0587 20.9102 38.421 19.6024 37.3041C17.9865 35.9285 17.0545 33.8228 17.0545 30.6047C17.0545 21.4279 24.6415 13.9874 34 13.9874C43.3585 13.9874 50.9455 21.4279 50.9455 30.6047Z" fill="#E4EBF8"/>
<path d="M24.7385 39.4244C22.2812 36.2109 21.6953 33.0762 21.9764 29.9016C22.6392 22.4226 27.1725 16.0487 34.1447 13.9893C34.0966 13.9888 34.0485 13.9874 34 13.9874C24.6415 13.9874 17.0545 21.4279 17.0545 30.6047C17.0545 33.8228 17.9865 35.9285 19.6024 37.3041C20.9102 38.421 22.6667 39.0587 24.7385 39.4244Z" fill="white"/>
<path d="M50.9455 30.6047C50.9455 36.4311 47.8881 38.6096 43.2615 39.4244C42.0191 39.6432 41.1191 40.7085 41.1191 41.9463V43.4976C41.1191 44.1385 40.6 44.6576 39.9592 44.6576H39.9578C39.3169 44.6576 38.7964 44.1385 38.7964 43.4976V43.179C38.7964 42.7231 38.4275 42.3541 37.9716 42.3541C37.744 42.3541 37.5381 42.4466 37.3893 42.5954C37.2391 42.7455 37.1467 42.9515 37.1467 43.179V43.4976C37.1467 44.1385 36.6276 44.6576 35.9862 44.6576C35.6663 44.6576 35.3756 44.5276 35.165 44.3179C34.9549 44.1083 34.8249 43.819 34.8249 43.4976V43.179C34.8249 42.7231 34.4559 42.3541 34 42.3541V13.9874C43.3585 13.9874 50.9455 21.4279 50.9455 30.6047Z" fill="#C7D9FF"/>
<path d="M31.5482 31.582C31.5482 34.2371 29.3963 34.5625 26.7413 34.5625C24.0862 34.5625 21.9338 34.2371 21.9338 31.582C21.9338 28.927 24.0858 26.7746 26.7413 26.7746C29.3963 26.7751 31.5482 28.927 31.5482 31.582Z" fill="#002E37"/>
<path d="M46.0667 31.582C46.0667 34.2371 43.9142 34.5625 41.2592 34.5625C38.6042 34.5625 36.4518 34.2371 36.4518 31.582C36.4518 28.927 38.6042 26.7746 41.2592 26.7746C43.9142 26.7746 46.0667 28.927 46.0667 31.582Z" fill="#002E37"/>
<path d="M33.2639 35.1558L31.9817 37.3769C31.6544 37.9436 32.0636 38.6517 32.7178 38.6517H35.2822C35.9368 38.6517 36.3456 37.9436 36.0187 37.3769L34.7365 35.1558C34.4092 34.5891 33.5912 34.5891 33.2639 35.1558Z" fill="#002E37"/>
<path d="M49.5154 55.6805C48.6791 56.1877 47.8153 56.6542 46.9268 57.0785C45.6707 57.6796 44.3674 58.1955 43.022 58.6185C42.6307 57.675 41.8982 56.9087 40.9456 56.5091L33.9954 53.5908H33.994L31.669 52.6149L30.5045 52.126L29.3441 51.6399L25.6691 50.0963C24.5865 49.6417 23.3652 49.7214 22.3256 50.2675C21.6088 50.6451 20.7248 50.6895 19.9292 50.2959C18.7363 49.7076 18.1678 48.2941 18.6214 47.0425C18.8384 46.4415 19.2485 45.9714 19.7535 45.6715C19.6138 45.1021 19.6619 44.4795 19.9398 43.9032C19.9974 43.7837 20.0629 43.6697 20.1366 43.5622C20.794 42.5963 22.0469 42.1628 23.1775 42.5592C24.0143 42.8522 24.6016 43.5127 24.8346 44.2886C25.1734 45.4138 25.9713 46.3408 27.0543 46.7953L34.0046 49.7131L35.1659 50.2006L36.3295 50.6895L38.6545 51.6655H38.6559L42.3322 53.2091C43.4134 53.6636 44.6347 53.5826 45.6743 53.0379C46.3912 52.6607 47.2751 52.6158 48.0707 53.0086C48.9368 53.4361 49.4747 54.299 49.5296 55.2187C49.5392 55.3711 49.5342 55.5258 49.5154 55.6805Z" fill="white"/>
<path d="M46.9268 57.0786C45.6707 57.6796 44.3674 58.1955 43.022 58.6185C42.6306 57.675 41.8982 56.9087 40.9456 56.5091L33.9954 53.5909H33.994L31.669 52.6149L30.5045 52.126L29.3441 51.6399L25.6691 50.0963C24.5865 49.6417 23.3652 49.7214 22.3256 50.2675C21.6088 50.6451 20.7248 50.6895 19.9292 50.2959C18.7363 49.7076 18.1678 48.2941 18.6214 47.0425C18.8384 46.4415 19.2485 45.9714 19.7535 45.6715L31.675 50.6767L32.835 51.1629L34 51.6527L36.325 52.6277L46.9268 57.0786Z" fill="#E4EBF8"/>
<path d="M49.5543 48.0304C49.5539 48.0822 49.5521 48.1339 49.5484 48.1852C49.525 48.5202 49.4381 48.8471 49.293 49.1474C49.293 49.1483 49.293 49.1483 49.293 49.1483C49.2673 49.2023 49.2389 49.2563 49.2087 49.309C49.2087 49.309 49.2087 49.309 49.2087 49.3103C49.1794 49.3616 49.1479 49.4133 49.1135 49.4637C49.0961 49.4893 49.0796 49.5154 49.0622 49.5397C49.027 49.5891 48.9908 49.6372 48.9506 49.6839C48.9506 49.6852 48.9506 49.6852 48.9506 49.6852C48.8549 49.8033 48.7469 49.9137 48.6283 50.0135C48.5816 50.0533 48.5326 50.0917 48.4832 50.1293C48.4575 50.148 48.4314 50.1654 48.4058 50.1833C48.3541 50.2185 48.3014 50.2524 48.2465 50.284C48.1916 50.3156 48.1353 50.3463 48.0776 50.3742C47.2806 50.7633 46.3971 50.7143 45.6826 50.3334C45.4244 50.1961 45.1552 50.0872 44.8783 50.0084C44.7204 49.964 44.5611 49.9288 44.4004 49.9031C44.2818 49.8857 44.1637 49.8716 44.0452 49.8647C44.0406 49.8633 44.036 49.8633 44.0314 49.8633C43.5215 49.8317 43.007 49.9009 42.5162 50.0753C42.4563 50.0954 42.399 50.1187 42.3404 50.1421L42.3391 50.1435L38.6559 51.6655H38.6545L37.4932 52.1462H37.4923L36.3263 52.6278H36.325L33.9954 53.5909H33.994L27.0273 56.4702C26.0619 56.8698 25.319 57.6444 24.9239 58.602C23.5634 58.1708 22.2474 57.6458 20.9794 57.0328H20.978C20.1192 56.619 19.2838 56.1644 18.4726 55.6733C18.4456 55.4929 18.4397 55.3112 18.4502 55.1322C18.5111 54.2121 19.054 53.3533 19.9224 52.9303C20.7203 52.5421 21.6028 52.5916 22.3188 52.9724C23.3547 53.5231 24.5756 53.611 25.6595 53.162L29.3441 51.6399L31.675 50.6768L32.8409 50.1947L34.0046 49.7132L40.9726 46.8338C42.058 46.3852 42.8618 45.4628 43.2061 44.3404C43.4441 43.5659 44.0346 42.9081 44.8728 42.6201C46.0058 42.2297 47.2564 42.6705 47.9078 43.6396C47.9815 43.7485 48.046 43.862 48.1037 43.9815C48.3779 44.5592 48.4223 45.1827 48.2795 45.7512C48.4365 45.846 48.5853 45.9563 48.7198 46.0826C48.7482 46.1087 48.7748 46.1344 48.8009 46.1614C48.8782 46.241 48.9519 46.3253 49.021 46.4154C49.1126 46.5363 49.1945 46.6654 49.265 46.8036C49.3163 46.9066 49.3644 47.0156 49.4042 47.1296C49.4303 47.201 49.4523 47.2724 49.471 47.3452C49.4898 47.4175 49.5049 47.4903 49.5182 47.564C49.5443 47.7187 49.5562 47.8748 49.5543 48.0304Z" fill="white"/>
<path d="M49.5484 48.1851C49.5237 48.5202 49.4372 48.847 49.293 49.1473C49.293 49.1483 49.293 49.1483 49.293 49.1483C49.266 49.2036 49.238 49.2563 49.2087 49.3089C49.2087 49.3089 49.2087 49.3089 49.2087 49.3103C49.1781 49.3629 49.1465 49.4133 49.1135 49.4637C49.0961 49.4893 49.0797 49.5154 49.0623 49.5396C49.027 49.5891 48.9895 49.6371 48.9506 49.6838C48.9506 49.6852 48.9506 49.6852 48.9506 49.6852C48.8535 49.8033 48.7455 49.9127 48.6283 50.0134C48.5816 50.0533 48.5326 50.0917 48.4832 50.1292C48.4576 50.148 48.4315 50.1654 48.4058 50.1833C48.3541 50.2185 48.3015 50.2524 48.2465 50.284C48.1916 50.3156 48.1353 50.3462 48.0776 50.3741C47.2806 50.7632 46.3972 50.7143 45.6826 50.3334C45.4244 50.1961 45.1552 50.0871 44.8783 50.0084C44.7204 49.9631 44.5611 49.9278 44.4004 49.9031C44.2818 49.8843 44.1637 49.8715 44.0452 49.8647C44.0406 49.8633 44.036 49.8633 44.0314 49.8633C43.5215 49.8317 43.007 49.9008 42.5162 50.0752C42.4563 50.0954 42.399 50.1187 42.3405 50.1421L42.3391 50.1434L38.6545 51.6655L37.4923 52.1461L36.3264 52.6277H36.325L33.9954 53.5909H33.9941L27.0273 56.4702C26.0619 56.8698 25.319 57.6443 24.9239 58.602C23.5634 58.1708 22.2474 57.6457 20.9794 57.0328L31.6691 52.6149H31.6704L33.9986 51.6527H34L35.1673 51.1697L36.3296 50.6895L48.2795 45.7512C48.4365 45.8459 48.5853 45.9563 48.7199 46.0826C48.7469 46.1087 48.7739 46.1343 48.8009 46.1613C48.8782 46.241 48.9519 46.3252 49.0211 46.4154C49.1112 46.5363 49.1932 46.6653 49.265 46.8036C49.3163 46.9066 49.3644 47.0155 49.4042 47.1295C49.4303 47.2009 49.4523 47.2733 49.471 47.3451C49.4898 47.4174 49.5049 47.4902 49.5182 47.5639C49.553 47.7704 49.5626 47.9791 49.5484 48.1851Z" fill="#E4EBF8"/>
</g>
<defs>
<filter id="filter0_d" x="0" y="0" width="68" height="68" filterUnits="userSpaceOnUse" color-interpolation-filters="sRGB">
<feFlood flood-opacity="0" result="BackgroundImageFix"/>
<feColorMatrix in="SourceAlpha" type="matrix" values="0 0 0 0 0 0 0 0 0 0 0 0 0 0 0 0 0 0 127 0"/>
<feOffset dy="4"/>
<feGaussianBlur stdDeviation="2"/>
<feColorMatrix type="matrix" values="0 0 0 0 0 0 0 0 0 0 0 0 0 0 0 0 0 0 0.25 0"/>
<feBlend mode="normal" in2="BackgroundImageFix" result="effect1_dropShadow"/>
<feBlend mode="normal" in="SourceGraphic" in2="effect1_dropShadow" result="shape"/>
</filter>
</defs>
</svg>
