<svg width="20" height="20" viewBox="0 0 20 20" fill="none" xmlns="http://www.w3.org/2000/svg">
<path d="M10.844 6.4887C10.988 6.34479 11.2202 6.34479 11.3645 6.4887L14.6156 9.74009C14.6502 9.77396 14.6763 9.81481 14.6954 9.85936C14.7142 9.90465 14.7238 9.95211 14.7238 10.0007C14.7238 10.0489 14.7142 10.0964 14.6954 10.1417C14.6763 10.1862 14.6502 10.2267 14.6156 10.2609L11.3645 13.5127C11.2203 13.6562 10.9872 13.6562 10.844 13.5127C10.6998 13.3684 10.6998 13.1361 10.844 12.9922L13.4674 10.3688L0.368113 10.3688C0.164562 10.3688 0 10.2043 0 10.0007C0 9.79678 0.164516 9.63258 0.368113 9.63258L13.4674 9.63258L10.844 7.00956C10.6997 6.86528 10.6997 6.63302 10.844 6.4887Z" fill="#11AB7C"/>
<path d="M4.29448 17.4846L4.29448 13.62C4.29448 13.4165 4.4594 13.2519 4.66259 13.2519C4.86578 13.2519 5.0307 13.4164 5.0307 13.62L5.0307 17.1165L19.2642 17.1165L19.2642 2.88349L5.03066 2.88349L5.03066 6.48895C5.03066 6.69214 4.86574 6.85706 4.66255 6.85706C4.45936 6.85706 4.29443 6.69214 4.29443 6.48895L4.29443 2.51542C4.29443 2.31223 4.45936 2.14731 4.66255 2.14731L19.6322 2.14731C19.8357 2.14731 20.0003 2.31223 20.0003 2.51542L20.0003 17.4847C20.0003 17.6882 19.8358 17.8528 19.6322 17.8528L4.66259 17.8528C4.4594 17.8528 4.29448 17.6882 4.29448 17.4846Z" fill="#11AB7C"/>
</svg>
