<svg width="68" height="69" viewBox="0 0 68 69" fill="none" xmlns="http://www.w3.org/2000/svg">
<g filter="url(#filter0_d)">
<path d="M34 60.0195C50.5686 60.0195 64 46.5836 64 30.0097C64 13.4358 50.5686 0 34 0C17.4315 0 4 13.4358 4 30.0097C4 46.5836 17.4315 60.0195 34 60.0195Z" fill="#00DF76"/>
<path d="M34 0C33.9864 0 33.9729 0.000468843 33.9593 0.000468843V60.0189C33.9729 60.0189 33.9864 60.0193 34 60.0193C50.5686 60.0193 64 46.5836 64 30.0096C64 13.4356 50.5686 0 34 0Z" fill="#00AB5E"/>
<path d="M17.0389 30.6059L29.173 42.7401C29.7022 43.2693 30.5603 43.2693 31.0895 42.7401L51.0103 22.8193C51.5396 22.29 51.5396 21.4319 51.0103 20.9027L47.3844 17.2768C46.8552 16.7476 45.9971 16.7476 45.4679 17.2768L30.9787 31.7658C30.4495 32.295 29.5914 32.295 29.0622 31.7658L22.569 25.2727C22.0502 24.7539 21.2128 24.7422 20.6797 25.2462L17.0661 28.6628C16.5114 29.1873 16.4991 30.0662 17.0389 30.6059Z" fill="#FFF5F5"/>
<path d="M47.3844 17.2767C46.8552 16.7475 45.9971 16.7475 45.4679 17.2767L33.9593 28.7853V39.8702L51.0103 22.8192C51.5395 22.29 51.5395 21.4319 51.0103 20.9026L47.3844 17.2767Z" fill="#DFEBF1"/>
</g>
<defs>
<filter id="filter0_d" x="0" y="0" width="68" height="68.0195" filterUnits="userSpaceOnUse" color-interpolation-filters="sRGB">
<feFlood flood-opacity="0" result="BackgroundImageFix"/>
<feColorMatrix in="SourceAlpha" type="matrix" values="0 0 0 0 0 0 0 0 0 0 0 0 0 0 0 0 0 0 127 0"/>
<feOffset dy="4"/>
<feGaussianBlur stdDeviation="2"/>
<feColorMatrix type="matrix" values="0 0 0 0 0 0 0 0 0 0 0 0 0 0 0 0 0 0 0.25 0"/>
<feBlend mode="normal" in2="BackgroundImageFix" result="effect1_dropShadow"/>
<feBlend mode="normal" in="SourceGraphic" in2="effect1_dropShadow" result="shape"/>
</filter>
</defs>
</svg>
