<svg width="148" height="143" viewBox="0 0 148 143" fill="none" xmlns="http://www.w3.org/2000/svg">
<ellipse cx="74" cy="71.5" rx="74" ry="71.5" fill="#C7EC8A" fill-opacity="0.91"/>
<path d="M114 115.259V125.456C114 126.604 113.07 127.534 111.922 127.534H36.0779C34.9299 127.534 34 126.604 34 125.456V115.259C34 104.56 42.6727 95.8925 53.374 95.8899C57.1558 95.8873 60.4857 93.9418 62.4026 90.9912C64.3283 88.0317 64.1299 85.4582 64.1299 83.3782L64.1688 83.2821C54.8442 79.4224 48.2857 70.2354 48.2857 59.5159V58.7029C44.5831 58.7029 41.7922 55.7769 41.7922 52.3289V41.534C41.7091 37.7756 41.8805 24.5211 51.4545 15.2925C62.587 4.56262 80.2286 5.44054 93.0078 11.1808C93.4234 11.3678 93.4104 11.9626 92.9896 12.1366L89.6571 13.5081C89.1584 13.7133 89.2649 14.4483 89.8 14.5055L91.4182 14.6795C99.1662 15.5081 106.364 19.7159 110.826 26.7185C110.945 26.9081 110.912 27.1964 110.758 27.36C108.005 30.2717 106.468 34.1366 106.468 38.1548V52.3289C106.468 55.8483 103.613 58.7029 100.094 58.7029H99.7143V59.5159C99.7143 70.2354 93.1558 79.4224 83.8312 83.2821L83.8701 83.3782C83.8701 85.3982 83.6553 88.0068 85.5974 90.9912C87.5143 93.9418 90.8442 95.8873 94.626 95.8899C105.327 95.8925 114 104.56 114 115.259Z" fill="#FFDFBA"/>
<path d="M114 115.259V125.456C114 126.604 113.07 127.534 111.922 127.534H36.0779C34.9304 127.534 34 126.604 34 125.456V115.259C34 104.56 42.674 95.8938 53.3727 95.8899C57.1556 95.8886 60.4862 93.9408 62.4026 90.9912C69.0919 96.706 78.9042 96.7094 85.5974 90.9912C87.5135 93.9408 90.8444 95.8886 94.6273 95.8899C105.326 95.8938 114 104.56 114 115.259Z" fill="#FE4F60"/>
<path d="M110.825 26.7198C110.945 26.9091 110.912 27.1959 110.758 27.359C108.005 30.2728 106.467 34.1364 106.467 38.1548V52.3289C106.467 55.5465 104.043 58.7029 99.7142 58.7029V42.6587C99.7142 35.773 94.1324 30.1912 87.2467 30.1912H60.7532C53.8675 30.1912 48.2856 35.773 48.2856 42.6587V58.7029C44.583 58.7029 41.7921 55.7769 41.7921 52.3289V41.534C41.709 37.7756 41.8804 24.5211 51.4545 15.2925C62.5862 4.56236 80.2295 5.4408 93.0067 11.1816C93.4223 11.3683 93.4114 11.9634 92.9898 12.1369L89.6571 13.5089C89.1589 13.7141 89.2638 14.4483 89.7994 14.5057L91.4181 14.6795C99.1675 15.5073 106.363 19.7151 110.825 26.7198Z" fill="#42434D"/>
<path d="M99.7142 59.5158C99.7142 73.7226 88.1953 85.2301 73.9999 85.2301C60.6254 85.2301 48.2856 74.8325 48.2856 58.7029V42.6587C48.2856 35.773 53.8675 30.1912 60.7532 30.1912H87.2467C94.1324 30.1912 99.7142 35.773 99.7142 42.6587V59.5158Z" fill="#FFEBD2"/>
<path d="M68.1776 76.1205C72.4054 78.7655 69.0716 85.252 64.4436 83.3943C54.9282 79.5751 48.2856 70.3024 48.2856 59.5159V42.6587C48.2856 40.0395 49.0934 37.6088 50.4732 35.6021C52.1651 33.1416 56.0779 34.2286 56.0779 37.4639V54.3211C56.0779 63.8042 61.0628 71.6691 68.1776 76.1205Z" fill="#FFF3E4"/>
<path d="M95.0389 123.118H88.8052C87.6576 123.118 86.7272 122.188 86.7272 121.041C86.7272 119.893 87.6576 118.963 88.8052 118.963H95.0389C96.1865 118.963 97.1168 119.893 97.1168 121.041C97.1168 122.188 96.1867 123.118 95.0389 123.118Z" fill="white"/>
<path d="M84.1637 87.6432C77.7645 90.3219 70.732 90.5297 63.8364 87.6432C64.1886 86.1819 64.1299 85.2354 64.1299 83.3782L64.1689 83.2821C70.424 85.8785 77.564 85.8837 83.8312 83.2821L83.8702 83.3782C83.8702 85.2362 83.8115 86.1824 84.1637 87.6432Z" fill="#FFD6A6"/>
<path d="M63.8395 102.164C62.879 102.467 61.8488 102.633 60.7444 102.643C50.0182 102.737 41.2727 111.218 41.2727 121.945V123.898C41.2727 125.906 39.6447 127.534 37.6364 127.534H36.0779C34.9304 127.534 34 126.604 34 125.456V115.259C34 104.56 42.674 95.8938 53.3727 95.8899C57.1556 95.8886 60.4862 93.9408 62.4026 90.9912C63.1751 91.651 64.0021 92.2439 64.8732 92.7632C68.7052 95.0465 68.0945 100.827 63.8395 102.164Z" fill="#FF6D7A"/>
<path d="M84.1605 102.164C85.1211 102.467 86.1512 102.633 87.2556 102.643C97.9819 102.737 106.727 111.218 106.727 121.945V123.898C106.727 125.906 108.355 127.534 110.364 127.534H111.922C113.07 127.534 114 126.604 114 125.456V115.259C114 104.56 105.326 95.8938 94.6273 95.8899C90.8444 95.8886 87.5138 93.9408 85.5974 90.9912C84.825 91.651 83.9979 92.2439 83.1268 92.7632C79.2951 95.0465 79.9055 100.827 84.1605 102.164Z" fill="#E84857"/>
<path d="M92.9895 12.1366C89.9355 13.3935 89.5002 13.6707 88.442 13.5065C71.3838 10.8624 56.4176 17.9203 51.335 34.4899V34.4925C49.4337 36.6795 48.2856 39.5366 48.2856 42.6587V52.405C48.2856 56.6096 41.7921 56.9024 41.7921 52.3289V41.534C41.709 37.7756 41.8804 24.5211 51.4545 15.2925C62.5869 4.56262 80.2285 5.44054 93.0077 11.1808C93.4233 11.3678 93.4103 11.9626 92.9895 12.1366Z" fill="#4D4E59"/>
</svg>
